<?xml version="1.0" encoding="UTF-8" standalone="no"?>
<!-- Created with Inkscape (http://www.inkscape.org/) -->

<svg
   width="662.10443mm"
   height="191.86914mm"
   viewBox="0 0 662.10445 191.86914"
   version="1.1"
   id="svg5"
   inkscape:version="1.1 (c4e8f9ed74, 2021-05-24)"
   sodipodi:docname="logo_bianco.svg"
   xmlns:inkscape="http://www.inkscape.org/namespaces/inkscape"
   xmlns:sodipodi="http://sodipodi.sourceforge.net/DTD/sodipodi-0.dtd"
   xmlns="http://www.w3.org/2000/svg"
   xmlns:svg="http://www.w3.org/2000/svg">
  <sodipodi:namedview
     id="namedview7"
     pagecolor="#ffffff"
     bordercolor="#666666"
     borderopacity="1.0"
     inkscape:pageshadow="2"
     inkscape:pageopacity="0.0"
     inkscape:pagecheckerboard="0"
     inkscape:document-units="mm"
     showgrid="false"
     showguides="false"
     inkscape:zoom="0.099502217"
     inkscape:cx="2281.3562"
     inkscape:cy="798.97717"
     inkscape:window-width="1920"
     inkscape:window-height="1006"
     inkscape:window-x="0"
     inkscape:window-y="0"
     inkscape:window-maximized="1"
     inkscape:current-layer="layer1"
     inkscape:snap-bbox="false"
     inkscape:snap-page="true" />
  <defs
     id="defs2">
    <rect
       x="-2508.6526"
       y="-611.13147"
       width="900.00092"
       height="674.8302"
       id="rect13281" />
    <rect
       x="28.117222"
       y="731.25189"
       width="727.53674"
       height="396.88129"
       id="rect5498" />
    <rect
       x="-2508.6526"
       y="-611.13147"
       width="900.00092"
       height="674.8302"
       id="rect13281-1" />
    <rect
       x="-2508.6526"
       y="-611.13147"
       width="900.00092"
       height="674.8302"
       id="rect13281-1-7" />
    <rect
       x="-2508.6526"
       y="-611.13147"
       width="900.00092"
       height="674.8302"
       id="rect13281-1-7-3" />
    <rect
       x="-2508.6526"
       y="-611.13147"
       width="900.00092"
       height="674.8302"
       id="rect13281-1-7-3-7" />
    <rect
       x="-2508.6526"
       y="-611.13147"
       width="900.00092"
       height="674.8302"
       id="rect13281-1-7-3-7-3" />
    <rect
       x="-2508.6526"
       y="-611.13147"
       width="900.00092"
       height="674.8302"
       id="rect13281-1-7-3-7-3-6" />
    <rect
       x="-2508.6526"
       y="-611.13147"
       width="900.00092"
       height="674.8302"
       id="rect13281-1-7-3-7-3-6-9" />
    <rect
       x="-2508.6526"
       y="-611.13147"
       width="900.00092"
       height="674.8302"
       id="rect13281-1-7-3-7-3-6-9-2" />
    <rect
       x="-2508.6526"
       y="-611.13147"
       width="900.00092"
       height="674.8302"
       id="rect13281-3" />
    <rect
       x="-2508.6526"
       y="-611.13147"
       width="900.00092"
       height="674.8302"
       id="rect13281-1-7-3-1" />
    <rect
       x="-2508.6526"
       y="-611.13147"
       width="900.00092"
       height="674.8302"
       id="rect13281-1-7-3-1-3" />
    <rect
       x="-2508.6526"
       y="-611.13147"
       width="900.00092"
       height="674.8302"
       id="rect13281-1-7-3-7-36" />
  </defs>
  <g
     inkscape:label="Livello 1"
     inkscape:groupmode="layer"
     id="layer1"
     transform="translate(-20.766877,-49.003066)">
    <g
       id="g10030"
       transform="matrix(1.1051412,0,0,1.1051412,195.06229,154.26737)"
       inkscape:export-filename="/home/boro/Documenti/SPORA/LOGO/g10030.png"
       inkscape:export-xdpi="299"
       inkscape:export-ydpi="299"
       style="fill:#ffffff;fill-opacity:1;stroke:#ffffff;stroke-opacity:1">
      <path
         style="fill:#ffffff;fill-opacity:1;stroke:#ffffff;stroke-width:4.765;stroke-miterlimit:4;stroke-dasharray:none;stroke-opacity:1"
         d="m -143.05334,-55.050757 c 2.30302,-1.08951 8.45877,-3.14088 15.05495,-5.01698 3.07527,-0.87468 6.05183,-1.76971 6.61458,-1.98895 2.01849,-0.7864 9.03542,-2.5922 12.96927,-3.33765 2.20472,-0.41778 5.18129,-1.04948 6.61459,-1.40377 1.4333,-0.35429 3.141779,-0.72165 3.796619,-0.81636 0.65485,-0.0947 2.2909,-0.52348 3.63569,-0.95285 1.34478,-0.42936 3.48791,-0.95932 4.7625,-1.17768 3.353917,-0.5746 7.538117,-1.4865 8.054207,-1.75533 1.02315,-0.53298 0.83643,-1.21894 -1.1989,-4.40451 -4.040257,-6.32354 -6.897747,-11.894703 -7.446777,-14.518781 -0.61812,-2.954324 -1.17027,-3.129117 -3.30113,-1.045038 -2.49498,2.440208 -13.999369,9.941613 -18.793089,12.253989 -1.23693,0.596665 -2.62159,1.363327 -3.07704,1.70369 -0.45545,0.34037 -1.7056,1.27813 -2.77812,2.08393 -3.3824,2.54121 -12.3535,8.30814 -16.50213,10.60814 -2.82192,1.56446 -5.23143,3.38981 -8.30832,6.29402 -2.9207,2.75678 -3.5277,3.57521 -3.02466,4.07825 0.35592,0.35592 1.31808,0.15739 2.92776,-0.60412 z"
         id="path9910" />
      <path
         style="fill:#ffffff;fill-opacity:1;stroke:#ffffff;stroke-width:4.765;stroke-miterlimit:4;stroke-dasharray:none;stroke-opacity:1"
         d="m -49.585754,-20.534469 c 0.48299,-0.58197 0.31129,-0.95628 -2.36718,-5.16079 -2.66156,-4.17794 -5.44339,-9.68237 -7.82236,-15.47812 -1.82178,-4.43831 -2.70505,-5.99361 -6.16067,-10.84792 -3.61893,-5.083708 -3.92233,-5.423958 -4.83659,-5.423958 -0.43374,0 -3.05688,1.1365 -6.07926,2.63388 -4.75751,2.357028 -10.975307,4.981138 -14.677607,6.194418 -1.72388,0.56493 -3.29891,1.85127 -3.29891,2.69424 0,0.85143 0.49404,1.14024 5.44766,3.18464 4.514427,1.86314 17.025697,7.82009 19.423167,9.2479 0.80037,0.47665 2.82443,1.53407 4.49792,2.34983 1.67349,0.81576 3.77361,2.0472 4.66693,2.73654 4.18861,3.23219 7.75027,6.07406 8.92158,7.11857 1.38612,1.23606 1.77621,1.36421 2.28532,0.75077 z"
         id="path9908" />
      <path
         style="fill:#ffffff;fill-opacity:1;stroke:#ffffff;stroke-width:4.765;stroke-miterlimit:4;stroke-dasharray:none;stroke-opacity:1"
         d="m -143.77624,-11.751269 c 14.261,-3.45387 21.85385,-4.52975 44.317699,-6.27963 4.85892,-0.3785 4.89479,-0.38722 4.89479,-1.18925 0,-0.52832 -0.22237,-0.74688 -1.12447,-1.1052 -2.52129,-1.00145 -8.091559,-4.09537 -11.614129,-6.45087 -1.25815,-0.84131 -3.34175,-1.96321 -4.6302,-2.49309 -2.51178,-1.03298 -6.49113,-3.09886 -8.73933,-4.53701 -2.41924,-1.54757 -2.77268,-1.42042 -8.34835,3.00325 -3.69668,2.93289 -8.45549,6.12986 -14.72209,9.89031 -5.0453,3.02757 -7.19674,4.87218 -8.32623,7.13877 -1.6484,3.30792 0.6604,3.8710998 8.29231,2.02272 z"
         id="path9906" />
      <path
         style="fill:#ffffff;fill-opacity:1;stroke:#ffffff;stroke-width:4.765;stroke-miterlimit:4;stroke-dasharray:none;stroke-opacity:1"
         d="m -69.066464,11.371867 c 1.19052,-0.78488 4.40063,-4.5838003 4.40063,-5.2078103 0,-0.3075 -0.33758,-1.023426 -0.75017,-1.590966 -0.88202,-1.2132501 -7.30445,-7.30231 -7.97022,-7.55651 -0.25154,-0.096 -3.89132,0.40189 -8.08839,1.10651 -4.19708,0.70462 -8.531697,1.36055996 -9.632487,1.45765996 -2.14895,0.18955 -11.013669,2.34426994 -11.580749,2.81489994 -0.45174,0.37491 -0.43804,1.18459 0.023,1.3615201 0.20108,0.0772 3.385999,0.93795 7.077609,1.912856 3.6916,0.97492 9.390907,2.54065 12.665127,3.47941 9.36781,2.6858603 12.41204,3.1741503 13.85562,2.2224303 z"
         id="path9904" />
      <path
         style="fill:#ffffff;fill-opacity:1;stroke:#ffffff;stroke-width:4.765;stroke-miterlimit:4;stroke-dasharray:none;stroke-opacity:1"
         d="m -120.36062,29.836517 c 1.74625,-0.15416 4.96094,-0.56983 7.14375,-0.92372 2.18281,-0.3539 5.09984,-0.76123 6.48229,-0.90518 2.52883,-0.26334 3.31535,-0.64178 3.0065,-1.44662 -0.19759,-0.51492 -3.90412,-2.0284 -12.66379,-5.17097 -1.30969,-0.46986 -4.46484,-1.68692 -7.01146,-2.70459 -2.54661,-1.01767 -5.46364,-2.1793 -6.48229,-2.58142 -1.01864,-0.40211 -3.06634,-1.22035 -4.55043,-1.81832 -1.48409,-0.59796 -2.89247,-1.08721 -3.12973,-1.08721 -0.49413,0 -6.69629,2.26007 -9.65005,3.51648 -1.91499,0.81456 -4.2592,2.46812 -5.48502,3.86902 -0.59113,0.67556 -2.25516,4.29344 -2.58818,5.62715 -0.24534,0.98255 0.45282,1.51499 2.92036,2.22714 2.76808,0.79888 3.78321,0.90201 14.14868,1.43742 9.22184,0.47634 12.09066,0.47005 17.85937,-0.0392 z"
         id="path9902" />
      <path
         style="fill:#ffffff;fill-opacity:1;stroke:#ffffff;stroke-width:4.765;stroke-miterlimit:4;stroke-dasharray:none;stroke-opacity:1"
         d="m -75.775204,41.864207 c 0.65687,-0.6905 2.15887,-4.77562 2.06211,-5.60849 -0.11035,-0.94979 -0.5756,-1.13451 -7.14272,-2.83582 -6.319467,-1.63717 -6.446657,-1.63474 -7.352387,0.14063 -0.64456,1.26346 -1.86241,2.12352 -4.30496,3.04021 -0.98223,0.36864 -2.41098,1.01526 -3.175,1.43694 -0.76402,0.42168 -2.72858,1.20646 -4.365689,1.74396 -2.43973,0.80102 -2.97656,1.07026 -2.97656,1.49287 0,0.28357 0.14883,0.57198 0.33073,0.6409 0.94791,0.35915 7.761549,0.56699 16.570676,0.50546 9.21327,-0.0643 9.9217,-0.10243 10.3538,-0.55666 z"
         id="path9900" />
    </g>
    <g
       aria-label="SPORA"
       transform="matrix(0.99234299,0,0,0.96116357,2563.0726,791.45976)"
       id="text13279-2-0-6-5"
       style="font-size:40px;line-height:1.25;letter-spacing:-2.29465px;white-space:pre;shape-inside:url(#rect13281-1-7-3-7)">
      <g
         id="g356"
         transform="matrix(0.75266485,0,0,0.75266485,-743.28917,-137.52983)"
         style="fill:#ffffff;fill-opacity:1">
        <path
           d="m -2146.5487,-759.35245 c -27.1503,0 -48.4301,11.98523 -48.4301,33.7543 0,18.58933 12.4743,28.86237 45.2503,35.95566 27.1502,5.87033 38.4016,9.29467 38.4016,23.23667 0,11.98522 -13.4528,18.83391 -30.5745,18.83391 -21.2799,0 -36.2003,-5.8703 -38.6462,-24.70423 h -19.3232 c 3.669,26.66101 26.1718,39.86921 57.4801,39.86921 27.3949,0 48.9194,-13.94199 48.9194,-34.48809 0,-22.74747 -13.4528,-31.30833 -46.2287,-38.40162 -30.0855,-6.60411 -36.9341,-9.78387 -36.9341,-20.30151 0,-11.98522 10.5176,-18.58933 30.0854,-18.58933 19.5677,0 31.5529,9.53927 32.7759,22.74747 h 19.3231 c -0.9784,-22.74747 -23.7259,-37.91244 -52.099,-37.91244 z"
           style="font-family:altertype;-inkscape-font-specification:altertype;stroke-width:6.11491;fill:#ffffff;fill-opacity:1"
           id="path30" />
        <path
           d="m -1999.3917,-759.35245 c -21.0352,0 -32.7758,8.07168 -43.2934,21.03529 v -18.58933 h -17.1219 v 178.55536 h 17.1219 v -74.84649 c 9.2946,12.22982 22.5028,21.03529 43.2934,21.03529 35.9558,0 60.1708,-27.39479 60.1708,-63.59507 0,-35.95565 -24.215,-63.59505 -60.1708,-63.59505 z m 0,16.14336 c 27.1502,0 42.8044,20.30151 42.8044,47.45169 0,26.41641 -15.4096,47.45171 -42.8044,47.45171 -26.4163,0 -43.2934,-18.83393 -43.2934,-47.45171 0,-27.39479 15.8987,-47.45169 43.2934,-47.45169 z"
           style="font-family:altertype;-inkscape-font-specification:altertype;stroke-width:6.11491;fill:#ffffff;fill-opacity:1"
           id="path32" />
        <path
           d="m -1861.5292,-759.35245 c -35.9556,0 -62.1274,27.6394 -62.1274,63.59505 0,35.95568 25.9271,63.59507 62.1274,63.59507 35.9558,0 61.6383,-27.63939 61.6383,-63.59507 0,-36.20025 -25.6825,-63.59505 -61.6383,-63.59505 z m 0,15.89877 c 27.3948,0 44.5165,21.03529 44.5165,47.69628 0,27.39481 -17.3663,47.6963 -44.5165,47.6963 -27.3948,0 -45.2502,-20.05691 -45.2502,-47.6963 0,-27.39479 18.1,-47.69628 45.2502,-47.69628 z"
           style="font-family:altertype;-inkscape-font-specification:altertype;stroke-width:6.11491;fill:#ffffff;fill-opacity:1"
           id="path34" />
        <path
           d="m -1657.3811,-739.78473 v -17.12176 c -41.5813,-8.56087 -67.9978,10.27305 -77.537,39.86922 l 0.9784,-39.86922 h -17.1218 l 0.2446,122.29819 h 17.1217 l -0.2445,-58.45853 c 0,-22.99206 27.1501,-57.23555 76.5586,-46.7179 z"
           style="font-family:altertype;-inkscape-font-specification:altertype;stroke-width:6.11491;fill:#ffffff;fill-opacity:1"
           id="path36" />
        <path
           d="m -1575.7751,-759.35245 c -28.8624,0 -47.6963,14.92039 -51.3652,38.64623 h 18.1 c 3.1797,-13.94199 12.4744,-24.21504 33.2652,-24.21504 19.8123,0 28.8623,6.8487 28.8623,26.17181 v 12.47441 c -69.7099,15.89877 -82.1844,37.42325 -81.9397,71.66674 h 17.1216 c 0,-23.72584 7.8272,-40.603 64.8181,-56.01257 v 56.01257 h 17.1218 v -85.36413 c 0,-28.61778 -21.5245,-39.38002 -45.9841,-39.38002 z"
           style="font-family:altertype;-inkscape-font-specification:altertype;stroke-width:6.11491;fill:#ffffff;fill-opacity:1"
           id="path38" />
      </g>
    </g>
  </g>
</svg>
